<?xml version="1.0" encoding="UTF-8" standalone="no"?>
<!-- Created with Inkscape (http://www.inkscape.org/) -->
<svg
   xmlns:svg="http://www.w3.org/2000/svg"
   xmlns="http://www.w3.org/2000/svg"
   version="1.0"
   width="30"
   height="48"
   id="svg2310">
  <defs
     id="defs2312" />
  <g
     transform="translate(-488.29012,-254.49786)"
     id="layer1">
    <path
       d="M 511.97791,260.45543 L 510.51184,259.46572 L 509.50097,259.50277 L 508.89409,259.45865 L 508.27134,259.21343 L 507.69796,258.75651 L 507.42099,258.38779 L 507.33454,258.30488 L 507.2869,258.27489 L 507.18282,258.21491 L 507.00464,258.14433 L 506.81586,258.0826 L 506.73648,258.08787 L 506.30071,258.1849 L 506.23898,258.20432 L 505.92141,258.37897 L 505.88437,258.42307 L 505.58623,258.78297 L 505.51566,258.87823 L 505.2175,259.48688 L 505.18927,259.5398 L 505.20868,259.61393 L 505.23691,259.6633 L 505.82438,260.06378 L 505.80322,260.12905 L 505.51741,259.9403 L 505.41509,259.8856 L 505.27396,259.8609 L 505.20868,259.87854 L 505.15046,259.90853 L 505.05696,259.9791 L 505.02345,260.0285 L 504.94759,260.11318 L 504.70765,260.28783 L 504.41833,260.41485 L 504.07078,260.56305 L 503.51858,260.69889 L 503.22397,260.81886 L 501.94845,261.76624 L 501.90082,261.80857 L 501.458,262.34842 L 501.3945,262.44721 L 501.07517,263.32932 L 501.01166,263.45633 L 500.78408,264.07203 L 500.67646,264.566 L 500.53356,265.75684 L 500.45771,265.7639 L 500.42066,265.80624 L 499.43271,267.05705 L 498.95461,267.70629 L 498.92991,267.76273 L 498.7482,268.56015 L 498.68998,268.83183 L 498.65647,269.05059 L 498.6106,269.2323 L 498.48533,269.444 L 498.19071,269.92387 L 498.05487,270.15851 L 497.99666,270.26788 L 497.89609,270.49018 L 497.79024,270.78303 L 497.55736,271.67042 L 497.5362,271.73746 L 497.34919,272.69012 L 497.33862,272.90007 L 496.94342,273.48402 L 496.89049,273.60222 L 496.45123,274.79305 L 496.08956,275.99624 L 495.88667,276.69308 L 495.84609,276.81128 L 495.53913,277.57341 L 495.3627,277.7269 L 495.15807,278.16972 L 495.13512,278.22792 L 494.5794,280.11739 L 494.5547,280.255 L 494.56529,280.32734 L 494.69938,280.85305 L 494.90226,281.47758 L 494.9199,281.5358 L 494.98516,281.71046 L 495.10515,282.01919 L 495.37682,282.79896 L 495.39093,282.86777 L 495.51444,283.62285 L 495.49502,283.67754 L 495.45444,283.71635 L 495.338,283.77103 L 495.17571,284.15917 L 495.10515,284.41498 L 495.00106,284.8966 L 494.8511,285.75222 L 494.84404,285.81926 L 494.85991,285.88983 L 494.8952,285.94099 L 494.94636,285.96922 L 495.00106,285.99039 L 495.16688,285.99039 L 495.22863,286.00804 L 495.28332,286.04157 L 495.30978,286.08743 L 495.43681,286.43674 L 495.44032,286.5073 L 495.40328,286.55317 L 495.32389,286.63433 L 495.11749,286.66432 L 495.00106,286.72431 L 494.97282,286.77545 L 494.94988,286.91306 L 494.99223,287.03303 L 495.01692,287.09302 L 495.05574,287.13182 L 495.16335,287.18477 L 495.67496,287.36119 L 495.96607,287.20417 L 496.40183,287.9663 L 496.5306,288.4885 L 496.63822,288.78664 L 497.11103,289.84694 L 497.20982,289.99513 L 497.52385,290.38324 L 497.86257,290.88074 L 497.88197,290.94778 L 497.88197,291.03246 L 497.77612,291.24945 L 497.81671,291.38001 L 497.88551,291.48057 L 498.00372,291.60583 L 498.12367,291.72579 L 498.17837,291.75225 L 498.23128,291.78048 L 498.52591,291.88456 L 498.75878,292.14391 L 498.88932,292.33797 L 499.01635,292.54085 L 499.06576,292.65376 L 499.05694,292.71197 L 498.96872,292.66258 L 498.7482,292.47734 L 498.7182,292.42088 L 498.65293,292.33797 L 498.68998,292.42088 L 498.76232,292.53204 L 499.034,292.73492 L 499.20512,292.85488 L 499.25452,292.88664 L 499.64088,293.06834 L 499.69381,293.09306 L 499.74144,293.10363 L 499.82083,293.09833 L 500.07664,293.00659 L 500.15251,293.08423 L 500.23718,293.16539 L 500.43478,293.29592 L 500.81407,293.48293 L 500.88464,293.50411 L 500.96403,293.49529 L 501.15986,293.54291 L 501.75968,293.92046 L 502.01019,294.0757 L 502.05077,294.11982 L 502.52534,294.63143 L 502.67,294.81315 L 502.80231,295.00544 L 503.49036,296.03572 L 503.53975,296.14511 L 503.79909,296.77845 L 503.83438,296.9037 L 503.86613,297.50883 L 504.21368,298.73846 L 504.23309,298.7967 L 504.32482,298.86902 L 504.38128,298.89019 L 504.44303,298.91313 L 504.51536,298.90077 L 505.63386,298.712 L 506.03609,297.37122 L 506.0502,297.30593 L 505.95847,296.6232 L 505.63386,295.06718 L 505.47861,294.58026 L 505.42921,294.38796 L 505.3851,294.09688 L 505.38333,294.01572 L 505.40098,293.79697 L 505.85791,291.38883 L 505.95141,290.9813 L 506.30778,290.12214 L 506.43833,289.8434 L 506.86349,289.13597 L 507.1493,288.92602 L 507.2675,288.8819 L 507.36452,288.82017 L 507.44392,288.72137 L 507.72266,288.34558 L 508.43716,286.56728 L 509.1005,284.19974 L 509.65975,281.21648 L 509.73208,280.31145 L 509.73208,280.14915 L 509.72149,280.0574 L 509.8097,279.28293 L 509.79912,276.68075 L 510.01965,274.24437 L 510.00553,273.24232 L 509.95083,272.64074 L 509.86616,272.56134 L 509.7709,272.40786 L 509.74795,272.35316 L 509.73561,272.11501 L 509.75148,272.04972 L 510.10785,270.79185 L 510.2384,270.5237 L 510.81001,269.43695 L 510.88234,269.34698 L 511.07287,269.20231 L 510.89821,268.96768 L 510.86822,268.91475 L 510.85764,268.83535 L 510.87881,267.88094 L 510.89468,267.72568 L 511.01466,267.44165 L 511.07463,267.34285 L 511.19812,267.22464 L 511.3428,267.10821 L 511.42217,267.02882 L 511.44159,266.33549 L 511.37984,265.97914 L 511.28104,265.65452 L 511.18402,265.49926 L 511.00583,265.43223 L 510.92114,265.34754 L 510.88939,265.30344 L 510.83471,265.18701 L 510.43599,263.95206 L 510.39541,263.81799 L 510.39365,263.41576 L 510.38483,262.87414 L 510.39365,262.72242 L 510.406,262.6589 L 510.47304,262.47191 L 510.87174,261.6498 L 510.9035,261.59509 L 511.18402,261.2158 L 511.50156,260.96175 L 511.71681,260.81886 L 511.81031,260.77653 L 511.94968,260.66538 L 511.99378,260.62478 L 512.02554,260.57539 L 512.01848,260.49425 L 511.97791,260.45543 z "
       style="fill:#008000;fill-rule:evenodd"
       id="_213987240" />
  </g>
</svg>
